<svg width="127" height="142" viewBox="0 0 127 142" fill="none" xmlns="http://www.w3.org/2000/svg">
<path d="M19.9705 45.1997C20.9611 47.8409 28.6319 45.9097 26.4348 42.6082C24.5171 39.7611 19.1767 43.091 19.9705 45.1997Z" fill="url(#paint0_linear_8397_13904)"/>
<path d="M37.5158 19.3624C34.671 22.0107 40.3733 26.7038 41.6877 22.5077C42.9577 27.144 49.1998 24.0555 47.1551 20.1931C49.4411 21.4498 50.3682 17.2182 49.2887 15.7769C48.9378 15.3297 48.4469 15.0501 47.9171 14.9959C51.9747 11.7583 45.3771 6.71726 43.561 11.6589C43.561 5.36826 35.3441 9.27326 38.2841 14.0942C35.0774 12.873 34.0931 19.3695 37.5158 19.3624ZM37.0268 16.2455C37.4015 14.7616 38.9826 16.3733 39.8018 15.4503C40.7797 14.3498 37.7063 11.2968 40.4368 10.2602C43.1673 9.22356 41.1289 13.6256 42.8625 14.2291C44.8056 14.8965 44.9008 9.74896 47.0725 11.6802C49.1045 13.4836 44.9389 13.9877 45.5993 15.7698C46.2597 17.5519 48.895 15.5071 48.1393 18.1341C47.6821 19.6748 45.5993 16.7993 44.8945 18.2903C44.1896 19.7813 47.0154 21.4143 45.5295 22.6497C44.1833 23.7786 43.3832 22.6497 42.8434 21.3078C41.0273 16.6928 40.3034 26.1145 38.227 21.0735C37.8777 20.2499 40.132 19.8949 39.8081 18.6169C39.37 16.7851 36.3728 18.8015 37.0268 16.2455Z" fill="url(#paint1_linear_8397_13904)"/>
<path d="M17.1446 40.9177C17.7489 43.6222 17.7271 46.4542 17.0811 49.1466C10.8327 39.8527 6.55276 50.9855 16.3254 51.6316C13.6902 56.1401 14.4204 56.0123 14.6871 56.3247C15.6142 57.3045 21.0371 49.1182 18.5924 40.371C23.539 38.5676 24.047 27.9957 18.2749 26.2775C13.6267 24.893 7.84816 30.2819 9.72141 35.8057C11.0867 40.2219 14.0458 41.6561 17.1446 40.9177ZM11.2772 35.5927C13.233 32.0427 15.3602 35.5927 16.7064 39.2989C14.8014 39.7604 12.4075 38.9794 11.2835 35.5927H11.2772ZM20.9165 31.9504C21.2057 33.2621 21.0895 34.6446 20.5868 35.8731C20.0841 37.1016 19.2246 38.1038 18.1479 38.7167C16.1921 35.6779 17.6081 30.2393 20.9165 31.9504ZM20.218 29.8985C18.0971 29.792 16.2365 31.4321 15.773 34.0875C14.2553 32.4545 12.8901 31.6096 10.966 33.2994C11.1756 28.4004 17.9066 25.5604 20.218 29.9056V29.8985Z" fill="url(#paint2_linear_8397_13904)"/>
<path d="M22.041 115.858C19.8693 114.112 16.8276 116.334 17.3864 119.487C16.7695 117.941 15.892 116.543 14.802 115.369C14.0654 114.659 13.0557 115.951 13.805 116.661C14.6632 117.628 15.3637 118.754 15.8751 119.991C15.3908 120.057 14.9288 120.256 14.5304 120.571C14.132 120.886 13.8097 121.306 13.5925 121.794C13.3754 122.283 13.2701 122.824 13.2861 123.369C13.3021 123.914 13.439 124.447 13.6844 124.918C12.3218 123.629 11.1345 122.124 10.1601 120.452C10.0862 120.249 9.94525 120.086 9.76647 119.996C9.58769 119.906 9.38485 119.897 9.20011 119.97C9.01537 120.043 8.86293 120.193 8.77445 120.389C8.68598 120.584 8.66828 120.81 8.72504 121.02C10.0439 123.428 11.79 125.509 13.8558 127.133C10.2046 129.036 12.7636 134.148 16.6689 133.559C19.9201 133.502 22.06 131.919 25.2287 131.017C25.4041 130.955 25.5532 130.823 25.6479 130.646C25.7426 130.47 25.7764 130.261 25.743 130.058C24.2825 126.011 24.9302 118.173 22.041 115.858ZM20.7138 130.768C11.4111 134.872 10.6427 124.741 21.3488 130.513L20.7138 130.768ZM14.8655 123.299C15.3227 117.854 20.8472 127.559 22.803 129.107C17.6595 128.149 14.7067 125.238 14.8655 123.285V123.299ZM21.1329 124.442C15.4179 117.25 22.568 110.505 23.584 127.538C22.7014 126.487 21.9013 125.401 21.1329 124.428V124.442Z" fill="url(#paint3_linear_8397_13904)"/>
<path d="M75.3296 34.2582C67.8683 24.7655 61.0865 26.6186 56.9146 29.771C55.8021 30.6352 54.4542 31.0371 53.1046 30.907C50.99 30.8147 41.4333 29.1533 36.1945 44.7307C36.1945 44.7307 31.813 60.514 30.035 63.4889C28.257 66.4638 25.59 71.022 21.9705 71.4764C19.5385 71.7888 18.3129 69.9286 16.2555 70.4682C12.0391 71.5545 11.8105 82.9074 16.5159 93.1172C21.526 104.044 29.5207 108.027 36.8359 109.291C32.7401 93.2947 34.734 80.7135 48.5707 78.903C53.0919 69.1547 48.2468 62.4594 46.2275 56.893C42.9382 47.9754 48.323 40.3003 55.0858 37.3467C67.3413 32.0004 77.6664 42.8776 79.5968 58.3272C79.5968 58.3272 82.7972 43.7509 75.3296 34.2582Z" fill="url(#paint4_linear_8397_13904)"/>
<path d="M104.476 107.686C97.7768 108.162 94.3605 103.717 93.3572 105.166C92.7857 105.996 93.5541 106.302 94.4494 106.827C93.6049 111.719 92.8175 116.32 92.0174 118.45C90.9506 117.079 88.436 116.944 87.7375 118.847C86.658 121.822 90.5315 123.434 92.3857 121.559C94.0176 119.912 94.424 116.483 95.4019 110.42C97.5355 111.264 102.184 112.408 103.282 112.677C103.015 115.811 102.335 118.883 101.263 121.794C100.133 120.7 99.1167 120.764 98.4626 121.325C97.1164 122.475 98.2086 125.876 100.628 125.472C101.898 125.259 102.952 124.896 104.006 119.131C104.921 114.147 105.968 107.793 104.476 107.686ZM95.7067 108.559C95.7639 108.226 95.821 107.892 95.8782 107.544C98.3232 108.691 100.937 109.321 103.587 109.404C103.549 109.866 103.511 110.306 103.473 110.739C100.825 110.76 97.2117 109.241 95.7067 108.559Z" fill="url(#paint5_linear_8397_13904)"/>
<path d="M86.9945 39.4982C90.2521 38.2983 88.7408 33.3638 86.5818 26.0934C87.0128 26.5969 87.5611 26.9554 88.1648 27.1286C88.7686 27.3017 89.4036 27.2826 89.9981 27.0732C93.0905 26.2709 91.5792 20.101 89.7568 21.8121C87.3692 25.6319 84.6768 22.018 84.5498 24.7586C85.4832 27.7406 86.8358 31.9012 87.1914 33.8466C81.5018 30.9072 81.6161 41.4649 86.9945 39.4982Z" fill="url(#paint6_linear_8397_13904)"/>
<path d="M56.9145 61.0605C60.0895 62.2533 64.9981 59.9387 67.4174 57.3401C68.0143 56.7011 67.4174 55.0184 66.3062 55.9201C64.452 57.4395 61.2706 59.7399 57.0415 59.3423C56.8377 59.3235 56.6356 59.396 56.4796 59.5438C56.3236 59.6916 56.2265 59.9026 56.2097 60.1304C56.1928 60.3583 56.2576 60.5843 56.3898 60.7587C56.522 60.9331 56.7107 61.0417 56.9145 61.0605Z" fill="url(#paint7_linear_8397_13904)"/>
<path d="M23.6671 79.094C20.4477 81.7494 18.7332 77.4468 17.9521 80.0667C18.1172 83.0629 18.3966 87.2803 18.2696 89.1547C13.8818 84.9302 11.1068 94.5223 16.6631 94.217C20.2635 94.0182 19.9587 89.105 19.5841 81.9482C21.724 85.9881 26.5691 83.4463 24.7212 79.2715C24.6002 79.0952 24.4228 78.9782 24.2262 78.9451C24.0296 78.912 23.8293 78.9654 23.6671 79.094Z" fill="url(#paint8_linear_8397_13904)"/>
<path d="M64.999 45.1784C66.7287 44.1578 68.6966 43.7539 70.6377 44.0211C71.6156 44.1276 71.6538 42.7999 70.714 42.4378C69.3043 41.9053 65.5387 42.4378 64.2751 43.8081C63.7353 44.3903 64.3322 45.5973 64.999 45.1784Z" fill="url(#paint9_linear_8397_13904)"/>
<path d="M53.0413 45.3769C53.8922 44.8728 53.0413 43.1617 52.0444 43.6019C48.8694 45.0716 43.0972 52.3207 45.3007 53.0307C45.4869 53.1103 45.693 53.1093 45.8786 53.0279C46.0642 52.9464 46.2159 52.7905 46.304 52.5905C47.1231 50.496 50.2537 47.0312 53.0413 45.3769Z" fill="url(#paint10_linear_8397_13904)"/>
<path d="M119.545 31.0984C117.977 30.8357 115.665 31.4108 113.195 32.4474C112.713 29.3518 115.291 28.6276 116.3 26.0006C116.63 25.1301 116.796 24.1935 116.789 23.2485C116.783 22.3034 116.603 21.3699 116.262 20.5052C116.183 20.2971 116.033 20.1327 115.846 20.0482C115.658 19.9636 115.448 19.9658 115.262 20.0543C115.076 20.1429 114.929 20.3104 114.853 20.5201C114.778 20.7298 114.78 20.9645 114.859 21.1726C116.986 26.8952 110.274 28.2726 111.766 33.0793C110.78 33.542 109.808 34.0417 108.852 34.5774C108.549 34.0148 108.081 33.5871 107.527 33.367C106.974 33.147 106.369 33.1481 105.817 33.3704C104.547 33.7396 104.769 35.4436 105.677 35.1667C106.699 34.8543 106.947 34.9466 107.442 35.3939C105.306 36.66 103.278 38.1431 101.384 39.8243C100.857 39.2279 100.971 38.6954 101.2 37.8221C102.127 34.3147 99.4856 34.5916 97.7711 32.9302C96.9646 32.1421 100.908 27.1224 99.6761 26.3769C99.5938 26.3125 99.5009 26.267 99.4028 26.2432C99.3047 26.2194 99.2033 26.2176 99.1045 26.2381C99.0058 26.2586 98.9117 26.3009 98.8278 26.3625C98.7438 26.4242 98.6717 26.5039 98.6156 26.597C94.2151 34.1727 96.1582 33.9455 99.8158 36.0684C100.025 37.3961 98.6982 39.5474 100.229 40.9674C96.7424 46.8817 103.073 45.4404 94.8755 54.1734C92.0688 50.9145 87.2872 53.6764 88.1254 57.8512C85.9913 56.8904 83.6996 56.4452 81.4008 56.5448C84.925 39.0504 69.1453 17.5658 54.6101 26.739C53.7402 27.2857 53.1179 28.088 52.0003 28.4004C51.0457 28.5907 50.0697 28.6051 49.111 28.443C43.5992 28.2229 38.3795 29.7849 33.49 36.6364C26.6257 46.761 27.4194 58.6464 20.1931 68.6787C13.5891 77.8661 10.63 71.3625 7.07404 72.534C6.05804 72.8677 3.51169 74.0818 3.26404 79.7973C3.04218 85.1985 3.92224 90.5853 5.8376 95.5499C7.75296 100.515 10.6534 104.927 14.3194 108.453C18.7976 112.931 24.3485 115.848 30.2896 116.845C32.1946 128.312 41.853 130.903 51.5113 127.637C58.8964 133.416 68.2436 130.392 73.0188 121.957C75.4064 117.917 74.9238 112.287 76.7653 108.14C78.8036 103.667 83.9281 101.097 86.7602 99.8477C92.1323 97.4692 91.8846 93.2873 88.5763 91.0082C86.6268 90.1207 83.528 89.6237 82.6136 87.5079C84.671 85.1862 86.4617 83.1414 87.6936 81.5439C90.4876 87.2949 93.7134 93.8908 97.0027 96.7805C102.495 101.616 112.281 98.2502 112.96 89.929C113.532 82.9994 110.75 77.2839 107.925 71.0146C105.385 65.3346 107.658 62.0047 104.591 59.186C108.75 51.4541 114.37 56.985 114.497 48.1171C114.567 43.6157 114.776 42.8276 118.021 42.6359C124.409 42.2525 126.365 32.4119 119.545 31.0984ZM109.506 36.111C110.484 35.5572 111.481 35.0389 112.446 34.5845C113.034 35.4662 113.743 36.2378 114.548 36.8707C112.535 40.8467 101.962 54.3154 98.8506 59.1008C98.6537 58.7813 98.4378 58.4334 98.2156 58.0713C101.626 54.4361 105.328 44.773 109.576 41.5993C110.865 40.6195 109.633 37.1405 109.506 36.111ZM101.162 42.359L101.454 42.0253C102.016 42.4091 102.605 42.7438 103.213 43.0264C102.419 44.0062 101.689 44.8724 100.844 45.9871C100.679 44.6452 100.438 43.2039 101.162 42.359ZM96.844 54.3367C99.5427 51.1488 102.394 46.5267 105.099 43.2039C106.191 41.8549 103.511 41.6206 102.667 40.8396C104.393 39.3691 106.224 38.0583 108.141 36.9204C108.427 37.9747 108.627 39.056 108.738 40.1509C105.035 43.1755 100.698 52.7818 97.2567 56.7365C96.8821 56.2466 96.4757 55.7496 96.0566 55.3165L96.844 54.3367ZM88.6207 59.9457C88.7795 60.464 88.9509 60.9894 89.1414 61.5219C85.1727 64.7666 81.7056 70.4679 78.5179 74.0392C76.6129 73.6416 75.762 72.8819 76.0795 70.9294C79.5466 67.3794 79.7371 62.7715 81.0642 58.2914C83.6697 58.0834 86.2778 58.6543 88.6207 59.9457ZM44.2088 61.7065C38.8304 52.0576 42.2721 44.1056 48.33 39.5829C53.41 35.7915 60.2426 34.2579 65.9322 37.5594C63.1572 37.1405 56.7564 39.5261 57.6772 41.4928C57.8135 41.7152 58.0146 41.8779 58.2462 41.953C58.4778 42.0281 58.7256 42.011 58.9472 41.9046C61.4767 39.8655 64.6037 38.9749 67.6975 39.4125C74.5872 41.6206 81.75 58.4334 76.8669 66.996C76.9685 65.4198 76.3779 64.2341 74.5936 64.156C70.2883 64.1134 65.8179 70.9436 65.3162 75.7077C61.5888 77.8377 52.6162 80.0529 46.2662 78.3418C48.7935 71.5684 46.9203 66.5771 44.2088 61.7065ZM64.9797 77.8164C64.8082 86.5139 58.6297 83.2195 53.4036 85.0939C52.9431 83.4015 52.0936 81.8739 50.9398 80.6635C55.7658 80.5215 61.3284 79.5843 64.9797 77.8164ZM58.6741 85.9956C63.5192 85.9246 66.2306 84.0218 66.4021 78.5974C66.5037 75.2249 68.9421 68.7994 72.1869 66.6765C73.1648 66.0304 74.7269 65.6186 75.2921 66.1227C75.8572 66.6268 74.9809 68.6645 74.765 70.0277C74.3904 72.4133 74.3777 74.7137 77.3558 75.4805C73.9522 79.7405 71.4186 82.7864 66.8021 88.2605C64.986 88.3102 62.7635 90.0213 60.4521 92.1939C58.9789 88.3102 56.3437 87.5505 54.1021 89.4462C54.0606 88.5424 53.9609 87.6431 53.8037 86.7553C55.3751 86.1862 57.0234 85.9291 58.6741 85.9956ZM84.4551 69.1757C84.3832 69.8828 84.3705 70.5959 84.417 71.3057C78.321 77.8874 76.0604 82.3959 69.92 89.2758C69.5364 88.9453 69.1075 88.6863 68.65 88.509C73.5204 82.7722 76.289 79.421 84.4551 69.1757ZM84.6901 73.4357C84.8246 74.1268 84.9921 74.8094 85.1917 75.4805C81.4706 80.3937 75.9334 87.9055 71.7742 92.6838C71.7352 91.8882 71.4705 91.1272 71.0185 90.5112C77.2288 83.4609 79.5275 79.1157 84.6901 73.4073V73.4357ZM7.51219 95.6232C3.21324 84.9732 3.70219 75.303 7.51219 73.9895C10.3633 73.0168 14.3892 79.492 21.3488 69.7295C28.645 59.683 27.9719 47.5988 34.6838 37.6588C41.7069 27.6904 49.365 30.8428 52.2162 30.005C53.556 29.6074 54.7054 28.4288 55.969 27.7827C69.431 20.9667 82.5057 39.7746 79.9593 56.0478C77.6543 45.6534 72.6505 38.383 64.459 34.9395C56.2675 31.496 42.0879 38.6599 40.1321 48.9194C37.935 60.4072 49.5301 66.5629 44.666 78.2353C28.8291 78.64 26.251 99.7483 29.788 115.098C23.3491 114.353 12.0651 106.969 7.51219 95.6232ZM45.1232 79.9464C54.1529 80.2233 52.8829 93.6423 51.0668 99.869C42.9198 101.601 34.5949 108.552 31.566 115.858C27.4448 100.593 30.55 79.5204 45.1232 79.9464ZM45.5804 127.09C40.6401 127.8 33.6551 125.67 32.328 118.393C37.0778 105.059 50.0127 102.063 52.3686 101.261C54.1656 100.65 53.791 90.7171 56.223 90.1846C58.6551 89.6521 59.0742 95.964 61.7539 93.266C65.8687 87.586 73.4379 90.142 68.6309 96.8941C67.6537 98.0063 66.5913 99.0207 65.4559 99.9258C65.3278 100.032 65.2327 100.181 65.1836 100.351C65.1346 100.521 65.1341 100.704 65.1823 100.874C65.2305 101.044 65.325 101.194 65.4525 101.301C65.5801 101.408 65.7344 101.469 65.8941 101.474C66.6624 101.31 67.2657 100.522 68.9294 98.9957C69.5636 100.86 69.9467 102.82 70.066 104.811C68.8722 105.847 67.1895 107.004 67.1704 107.019C67.0297 107.116 66.9212 107.262 66.8613 107.435C66.8015 107.608 66.7936 107.797 66.8388 107.975C66.884 108.154 66.9799 108.31 67.1119 108.422C67.2439 108.534 67.4049 108.595 67.5705 108.595C68.2055 108.467 68.5928 107.984 70.0152 106.969C69.4564 118.279 56.4072 125.472 45.5804 127.09ZM86.4681 92.0093C90.2019 92.6696 90.1066 96.9296 86.1887 98.236C82.4422 99.7838 77.5209 102.617 75.3937 107.359C73.4887 111.527 73.9713 117.065 71.7234 121.02C67.6276 128.17 60.0838 131.237 53.4544 126.984C64.9606 122.979 74.1808 113.196 71.0376 100.856C74.5237 96.5959 78.1623 92.4921 81.4897 88.7504C82.5501 90.6319 84.7726 91.42 86.4681 92.0093ZM70.4851 98.9531C70.3581 98.5176 70.2184 98.0703 70.066 97.6112C73.7935 92.2365 81.3246 83.7449 85.8013 77.2768C86.1315 78.1714 86.5062 79.0589 86.8999 79.918C83.8963 83.8798 76.8351 91.2141 70.4851 98.9531ZM105.074 65.4553C105.175 72.4488 112.694 81.0753 111.424 89.7373C110.204 97.9378 101.346 98.8821 97.6949 94.9771C94.2849 91.3348 91.8021 86.4571 89.0843 80.8836C85.8394 74.4936 83.7376 67.3368 89.7193 63.1336C90.5003 64.6956 90.7226 65.1642 91.1861 65.3062C91.6497 65.4482 92.1577 64.5465 91.8211 63.9998C91.4342 63.2168 91.0947 62.4055 90.8051 61.5716C89.2557 57.3116 88.9636 54.1237 92.0751 54.4219C93.9801 54.5994 96.3169 58.476 97.8727 60.6131C99.4284 62.7502 104.94 56.3318 105.08 65.4553H105.074ZM122.269 36.8139C120.815 45.0144 112.554 36.1749 112.954 47.9751C112.827 54.8905 107.512 50.24 103.111 58.5399C102.455 58.4228 101.786 58.4228 101.13 58.5399C104.839 53.293 115.932 38.7877 116.231 36.8636C116.37 35.3371 115.195 35.8625 113.913 33.9313C117.558 32.0924 122.612 32.1208 122.276 36.8139H122.269Z" fill="url(#paint11_linear_8397_13904)"/>
<path d="M59.6895 48.6288C63.309 48.3022 66.2744 49.5802 63.1502 53.2651C62.1215 54.4792 63.2455 55.3454 64.1091 54.5857C66.3062 52.6687 66.249 50.56 65.7283 49.1613C64.8393 46.8609 61.1119 46.5343 59.0545 47.1236C57.74 47.507 57.8988 48.7921 59.6895 48.6288Z" fill="url(#paint12_linear_8397_13904)"/>
<path d="M48.1209 55.5369C47.8796 56.2469 49.2575 57.319 49.7909 56.1049C50.8196 53.769 52.5341 51.5041 54.7757 50.9503C55.1884 50.8438 55.544 50.3539 55.3599 49.935C54.3693 47.7127 49.5306 51.5893 48.1209 55.5369Z" fill="url(#paint13_linear_8397_13904)"/>
<defs>
<linearGradient id="paint0_linear_8397_13904" x1="19.8906" y1="41.5068" x2="24.5451" y2="48.0581" gradientUnits="userSpaceOnUse">
<stop stop-color="#FADF99"/>
<stop offset="1" stop-color="#E9980C"/>
</linearGradient>
<linearGradient id="paint1_linear_8397_13904" x1="35.3711" y1="8.39355" x2="51.6648" y2="22.6304" gradientUnits="userSpaceOnUse">
<stop stop-color="#FADF99"/>
<stop offset="1" stop-color="#E9980C"/>
</linearGradient>
<linearGradient id="paint2_linear_8397_13904" x1="9.35938" y1="26.0576" x2="31.4373" y2="35.5838" gradientUnits="userSpaceOnUse">
<stop stop-color="#FADF99"/>
<stop offset="1" stop-color="#E9980C"/>
</linearGradient>
<linearGradient id="paint3_linear_8397_13904" x1="8.69238" y1="115.162" x2="27.0804" y2="132.174" gradientUnits="userSpaceOnUse">
<stop stop-color="#FADF99"/>
<stop offset="1" stop-color="#E9980C"/>
</linearGradient>
<linearGradient id="paint4_linear_8397_13904" x1="13.04" y1="27.2197" x2="93.5072" y2="93.144" gradientUnits="userSpaceOnUse">
<stop stop-color="#FADF99"/>
<stop offset="1" stop-color="#E9980C"/>
</linearGradient>
<linearGradient id="paint5_linear_8397_13904" x1="87.5508" y1="104.874" x2="107.937" y2="122.339" gradientUnits="userSpaceOnUse">
<stop stop-color="#29425C"/>
<stop offset="0.576923" stop-color="#081621"/>
</linearGradient>
<linearGradient id="paint6_linear_8397_13904" x1="82.9424" y1="21.5137" x2="97.2507" y2="28.447" gradientUnits="userSpaceOnUse">
<stop stop-color="#29425C"/>
<stop offset="0.576923" stop-color="#081621"/>
</linearGradient>
<linearGradient id="paint7_linear_8397_13904" x1="56.207" y1="55.6602" x2="60.785" y2="64.8167" gradientUnits="userSpaceOnUse">
<stop stop-color="#29425C"/>
<stop offset="0.576923" stop-color="#081621"/>
</linearGradient>
<linearGradient id="paint8_linear_8397_13904" x1="13.5645" y1="78.9355" x2="28.2775" y2="90.0687" gradientUnits="userSpaceOnUse">
<stop stop-color="#29425C"/>
<stop offset="0.576923" stop-color="#081621"/>
</linearGradient>
<linearGradient id="paint9_linear_8397_13904" x1="64.0654" y1="42.2344" x2="66.2055" y2="47.4107" gradientUnits="userSpaceOnUse">
<stop stop-color="#29425C"/>
<stop offset="0.576923" stop-color="#081621"/>
</linearGradient>
<linearGradient id="paint10_linear_8397_13904" x1="44.8115" y1="43.5303" x2="54.3152" y2="52.059" gradientUnits="userSpaceOnUse">
<stop stop-color="#29425C"/>
<stop offset="0.576923" stop-color="#081621"/>
</linearGradient>
<linearGradient id="paint11_linear_8397_13904" x1="3.23047" y1="19.9863" x2="113.45" y2="140.13" gradientUnits="userSpaceOnUse">
<stop stop-color="#29425C"/>
<stop offset="0.576923" stop-color="#081621"/>
</linearGradient>
<linearGradient id="paint12_linear_8397_13904" x1="58.1885" y1="46.8672" x2="66.1906" y2="54.7053" gradientUnits="userSpaceOnUse">
<stop stop-color="#29425C"/>
<stop offset="0.576923" stop-color="#081621"/>
</linearGradient>
<linearGradient id="paint13_linear_8397_13904" x1="48.0928" y1="49.2852" x2="55.4626" y2="56.6019" gradientUnits="userSpaceOnUse">
<stop stop-color="#29425C"/>
<stop offset="0.576923" stop-color="#081621"/>
</linearGradient>
</defs>
</svg>
