<svg width="52" height="52" viewBox="0 0 52 52" fill="none" xmlns="http://www.w3.org/2000/svg">
<path opacity="0.2" d="M15.0106 22.6279C14.7668 27.3201 15.9248 32.7844 19.4998 39L13.4061 43.875C13.1907 44.047 12.9346 44.1619 12.6629 44.208C12.3913 44.254 12.1122 44.23 11.8524 44.1387C11.5924 44.0473 11.3597 43.8905 11.1766 43.6846C10.9937 43.4787 10.8657 43.2297 10.8055 42.9609L8.30744 31.6465C8.24732 31.4073 8.24513 31.1571 8.30158 30.917C8.35813 30.6767 8.47195 30.4531 8.63263 30.2656L15.0106 22.6279ZM43.2449 30.1436C43.4056 30.331 43.5185 30.5546 43.575 30.7949C43.6316 31.0353 43.6304 31.2859 43.5701 31.5254L41.0711 42.8184C41.0135 43.0889 40.8878 43.3404 40.7059 43.5488C40.524 43.7572 40.2923 43.9162 40.032 44.0098C39.7718 44.1033 39.4915 44.1288 39.2186 44.084C38.9455 44.0391 38.6882 43.925 38.4715 43.7529L32.3777 38.8779C35.9526 32.6422 37.1107 27.1784 36.867 22.4863L43.2449 30.1436Z" fill="url(#paint0_linear_8397_13931)"/>
<path d="M29.2503 44.5C29.8024 44.5001 30.2502 44.9479 30.2503 45.5C30.2503 46.0522 29.8025 46.4999 29.2503 46.5H22.7503C22.198 46.5 21.7503 46.0523 21.7503 45.5C21.7504 44.9478 22.1981 44.5 22.7503 44.5H29.2503ZM26.2259 2.66309C26.7459 2.7087 27.2409 2.91238 27.6458 3.24707L27.6468 3.24609C29.6209 4.85272 33.9031 8.84535 36.2669 14.9893C37.0841 17.1133 37.6662 19.4827 37.8509 22.083L44.136 29.626H44.1351C44.395 29.9326 44.579 30.2962 44.6712 30.6875C44.762 31.0737 44.7604 31.4758 44.6683 31.8613L44.6692 31.8623L42.1702 43.1768V43.1797C42.0728 43.614 41.8663 44.0169 41.5706 44.3496C41.2749 44.6823 40.8987 44.9344 40.4788 45.082C40.0589 45.2296 39.608 45.2678 39.1692 45.1934C38.7305 45.1189 38.3177 44.934 37.97 44.6562H37.969L32.1487 40H19.8499L14.0306 44.6553V44.6562C13.6827 44.9342 13.2693 45.1189 12.8304 45.1934C12.3916 45.2677 11.9407 45.2296 11.5208 45.082C11.1011 44.9344 10.7256 44.6821 10.43 44.3496C10.1344 44.0169 9.92776 43.6139 9.83037 43.1797L9.8294 43.1768L7.33135 31.8623L7.33233 31.8613C7.24017 31.4757 7.23756 31.0737 7.32842 30.6875C7.42162 30.2916 7.60864 29.9231 7.87334 29.6143L14.0306 22.2412C14.1991 19.575 14.7921 17.1488 15.6351 14.9785C18.0165 8.84763 22.3399 4.86043 24.3431 3.25488V3.25391C24.8078 2.8659 25.3949 2.65332 26.0003 2.65332L26.2259 2.66309ZM9.40069 30.9062L9.3919 30.916C9.33538 30.982 9.29563 31.061 9.27569 31.1455C9.26078 31.2089 9.2568 31.2746 9.26494 31.3389L9.27764 31.4023L9.28447 31.4307L11.7815 42.7422L11.804 42.8184C11.8309 42.8924 11.8725 42.9612 11.9251 43.0205C11.9954 43.0995 12.0851 43.1602 12.1849 43.1953C12.2847 43.2303 12.3921 43.2394 12.4964 43.2217C12.6007 43.204 12.6988 43.1598 12.7815 43.0938L18.2122 38.748C15.5103 33.846 14.282 29.3698 14.0315 25.3594L9.40069 30.9062ZM37.8733 25.2354C37.6534 29.275 36.4568 33.7909 33.7806 38.7441L39.2181 43.0938L39.2835 43.1396C39.3508 43.1806 39.4261 43.2084 39.5042 43.2217C39.6085 43.2393 39.7159 43.2304 39.8157 43.1953C39.9156 43.1601 40.0051 43.0997 40.0755 43.0205C40.1458 42.9413 40.1949 42.8455 40.2181 42.7422L42.7161 31.4316L42.7229 31.4033C42.7442 31.319 42.7448 31.2301 42.7249 31.1455C42.705 31.0612 42.6649 30.9828 42.6087 30.917L42.5989 30.9062L37.8733 25.2354ZM25.8987 4.66211C25.8323 4.67382 25.7678 4.69694 25.7093 4.73047L25.6253 4.78906C25.6201 4.79341 25.6149 4.79848 25.6097 4.80273C23.746 6.29368 19.7068 10.02 17.4993 15.7031C15.3514 21.2335 14.8976 28.7188 20.0862 38H31.9095C35.116 32.1448 36.1132 27.0048 35.8792 22.6191C35.8701 22.5598 35.8659 22.5001 35.8675 22.4404C35.7147 19.9475 35.1675 17.7002 34.4007 15.707C32.3509 10.3794 28.7197 6.77141 26.7542 5.10449L26.3851 4.79688L26.3743 4.78906C26.2694 4.70156 26.1369 4.6534 26.0003 4.65332L25.8987 4.66211ZM26.0003 17.0625C27.3463 17.0626 28.4377 18.1539 28.4378 19.5C28.4378 20.8461 27.3464 21.9374 26.0003 21.9375C24.6541 21.9375 23.5628 20.8462 23.5628 19.5C23.5629 18.1539 24.6541 17.0625 26.0003 17.0625Z" fill="url(#paint1_linear_8397_13931)"/>
<defs>
<linearGradient id="paint0_linear_8397_13931" x1="8.26074" y1="22.4863" x2="27.6669" y2="54.04" gradientUnits="userSpaceOnUse">
<stop stop-color="#4775A2"/>
<stop offset="1" stop-color="#0F2B42"/>
</linearGradient>
<linearGradient id="paint1_linear_8397_13931" x1="7.26172" y1="2.65332" x2="50.5736" y2="39.6729" gradientUnits="userSpaceOnUse">
<stop stop-color="#4775A2"/>
<stop offset="1" stop-color="#0F2B42"/>
</linearGradient>
</defs>
</svg>
